<svg width="640" height="647" viewBox="0 0 640 647" fill="none" xmlns="http://www.w3.org/2000/svg">
<path d="M126.696 216.564C73.538 335.03 323.642 289.856 344.916 322.491C377.201 371.96 284.227 421.909 318.298 474.963C366.176 549.601 444.8 478.78 472.853 451.205C501.192 423.358 559.487 350.959 522.388 287.786C465.724 191.292 400.596 258.826 342.095 220.42C314.507 202.304 343.712 160.171 301.114 130.798C226.799 79.5422 145.691 174.237 126.696 216.564Z" fill="#92E3A9"/>
<path opacity="0.9" d="M126.696 216.564C73.538 335.03 323.642 289.856 344.916 322.491C377.201 371.96 284.227 421.909 318.298 474.963C366.176 549.601 444.8 478.78 472.853 451.205C501.192 423.358 559.487 350.959 522.388 287.786C465.724 191.292 400.596 258.826 342.095 220.42C314.507 202.304 343.712 160.171 301.114 130.798C226.799 79.5422 145.691 174.237 126.696 216.564Z" fill="white"/>
<path d="M323.5 553.263C462.065 553.263 574.394 546.704 574.394 538.615C574.394 530.525 462.065 523.966 323.5 523.966C184.935 523.966 72.6063 530.525 72.6063 538.615C72.6063 546.704 184.935 553.263 323.5 553.263Z" fill="#F5F5F5"/>
<path d="M247.594 510.431H120.536V534.344H247.594V510.431Z" fill="#92E3A9"/>
<path opacity="0.2" d="M247.594 510.431H120.536V513.149H247.594V510.431Z" fill="black"/>
<path opacity="0.2" d="M134.848 510.431H129.84V534.344H134.848V510.431Z" fill="black"/>
<path opacity="0.2" d="M146.338 510.431H141.331V534.344H146.338V510.431Z" fill="black"/>
<path opacity="0.2" d="M157.842 510.431H152.834V534.344H157.842V510.431Z" fill="black"/>
<path opacity="0.2" d="M169.333 510.431H164.325V534.344H169.333V510.431Z" fill="black"/>
<path opacity="0.2" d="M180.824 510.431H175.816V534.344H180.824V510.431Z" fill="black"/>
<path opacity="0.2" d="M192.327 510.431H187.319V534.344H192.327V510.431Z" fill="black"/>
<path opacity="0.2" d="M203.818 510.431H198.81V534.344H203.818V510.431Z" fill="black"/>
<path opacity="0.2" d="M215.309 510.431H210.301V534.344H215.309V510.431Z" fill="black"/>
<path opacity="0.2" d="M226.812 510.431H221.805V534.344H226.812V510.431Z" fill="black"/>
<path opacity="0.2" d="M238.303 510.431H233.295V534.344H238.303V510.431Z" fill="black"/>
<path d="M242.431 486.518H115.373V510.431H242.431V486.518Z" fill="#92E3A9"/>
<path opacity="0.2" d="M242.431 486.518H115.373V489.235H242.431V486.518Z" fill="black"/>
<path opacity="0.2" d="M129.672 486.518H124.664V510.431H129.672V486.518Z" fill="black"/>
<path opacity="0.2" d="M141.175 486.518H136.168V510.431H141.175V486.518Z" fill="black"/>
<path opacity="0.2" d="M152.666 486.518H147.658V510.431H152.666V486.518Z" fill="black"/>
<path opacity="0.2" d="M164.157 486.518H159.149V510.431H164.157V486.518Z" fill="black"/>
<path opacity="0.2" d="M175.661 486.518H170.653V510.431H175.661V486.518Z" fill="black"/>
<path opacity="0.2" d="M187.151 486.518H182.143V510.431H187.151V486.518Z" fill="black"/>
<path opacity="0.2" d="M198.642 486.518H193.634V510.431H198.642V486.518Z" fill="black"/>
<path opacity="0.2" d="M210.146 486.518H205.138V510.431H210.146V486.518Z" fill="black"/>
<path opacity="0.2" d="M221.636 486.518H216.629V510.431H221.636V486.518Z" fill="black"/>
<path opacity="0.2" d="M233.127 486.518H228.119V510.431H233.127V486.518Z" fill="black"/>
<path d="M238.769 462.605H111.711V486.518H238.769V462.605Z" fill="#92E3A9"/>
<path opacity="0.2" d="M238.769 462.605H111.711V465.322H238.769V462.605Z" fill="black"/>
<path opacity="0.2" d="M126.023 462.605H121.015V486.518H126.023V462.605Z" fill="black"/>
<path opacity="0.2" d="M137.513 462.605H132.506V486.518H137.513V462.605Z" fill="black"/>
<path opacity="0.2" d="M149.017 462.605H144.009V486.518H149.017V462.605Z" fill="black"/>
<path opacity="0.2" d="M160.508 462.605H155.5V486.518H160.508V462.605Z" fill="black"/>
<path opacity="0.2" d="M171.998 462.605H166.991V486.518H171.998V462.605Z" fill="black"/>
<path opacity="0.2" d="M183.502 462.605H178.494V486.518H183.502V462.605Z" fill="black"/>
<path opacity="0.2" d="M194.993 462.605H189.985V486.518H194.993V462.605Z" fill="black"/>
<path opacity="0.2" d="M206.484 462.605H201.476V486.518H206.484V462.605Z" fill="black"/>
<path opacity="0.2" d="M217.987 462.605H212.979V486.518H217.987V462.605Z" fill="black"/>
<path opacity="0.2" d="M229.478 462.605H224.47V486.518H229.478V462.605Z" fill="black"/>
<path d="M244.527 438.705H117.469V462.618H244.527V438.705Z" fill="#92E3A9"/>
<path opacity="0.2" d="M244.527 438.705H117.469V441.422H244.527V438.705Z" fill="black"/>
<path opacity="0.2" d="M131.768 438.705H126.76V462.618H131.768V438.705Z" fill="black"/>
<path opacity="0.2" d="M143.272 438.705H138.264V462.618H143.272V438.705Z" fill="black"/>
<path opacity="0.2" d="M154.762 438.705H149.755V462.618H154.762V438.705Z" fill="black"/>
<path opacity="0.2" d="M166.253 438.705H161.245V462.618H166.253V438.705Z" fill="black"/>
<path opacity="0.2" d="M177.757 438.705H172.749V462.618H177.757V438.705Z" fill="black"/>
<path opacity="0.2" d="M189.248 438.705H184.24V462.618H189.248V438.705Z" fill="black"/>
<path opacity="0.2" d="M200.738 438.705H195.73V462.618H200.738V438.705Z" fill="black"/>
<path opacity="0.2" d="M212.242 438.705H207.234V462.618H212.242V438.705Z" fill="black"/>
<path opacity="0.2" d="M223.733 438.705H218.725V462.618H223.733V438.705Z" fill="black"/>
<path opacity="0.2" d="M235.223 438.705H230.216V462.618H235.223V438.705Z" fill="black"/>
<path d="M111.892 438.692H238.95V414.779H111.892V438.692Z" fill="#92E3A9"/>
<path opacity="0.2" d="M111.892 417.496H238.95V414.779H111.892V417.496Z" fill="black"/>
<path opacity="0.2" d="M224.638 438.692H229.646V414.779H224.638V438.692Z" fill="black"/>
<path opacity="0.2" d="M213.135 438.692H218.143V414.779H213.135V438.692Z" fill="black"/>
<path opacity="0.2" d="M201.644 438.692H206.652V414.779H201.644V438.692Z" fill="black"/>
<path opacity="0.2" d="M190.153 438.692H195.161V414.779H190.153V438.692Z" fill="black"/>
<path opacity="0.2" d="M178.65 438.692H183.657V414.779H178.65V438.692Z" fill="black"/>
<path opacity="0.2" d="M167.159 438.692H172.167V414.779H167.159V438.692Z" fill="black"/>
<path opacity="0.2" d="M155.668 438.692H160.676V414.779H155.668V438.692Z" fill="black"/>
<path opacity="0.2" d="M144.165 438.692H149.172V414.779H144.165V438.692Z" fill="black"/>
<path opacity="0.2" d="M132.674 438.692H137.682V414.779H132.674V438.692Z" fill="black"/>
<path opacity="0.2" d="M121.183 438.692H126.191V414.779H121.183V438.692Z" fill="black"/>
<path d="M117.055 414.792H244.113V390.879H117.055V414.792Z" fill="#92E3A9"/>
<path opacity="0.2" d="M117.055 393.596H244.113V390.879H117.055V393.596Z" fill="black"/>
<path opacity="0.2" d="M229.801 414.792H234.809V390.879H229.801V414.792Z" fill="black"/>
<path opacity="0.2" d="M218.324 414.792H223.331V390.879H218.324V414.792Z" fill="black"/>
<path opacity="0.2" d="M206.82 414.792H211.828V390.879H206.82V414.792Z" fill="black"/>
<path opacity="0.2" d="M195.316 414.792H200.324V390.879H195.316V414.792Z" fill="black"/>
<path opacity="0.2" d="M183.839 414.792H188.846V390.879H183.839V414.792Z" fill="black"/>
<path opacity="0.2" d="M172.335 414.792H177.343V390.879H172.335V414.792Z" fill="black"/>
<path opacity="0.2" d="M160.831 414.792H165.839V390.879H160.831V414.792Z" fill="black"/>
<path opacity="0.2" d="M149.353 414.792H154.361V390.879H149.353V414.792Z" fill="black"/>
<path opacity="0.2" d="M137.85 414.792H142.858V390.879H137.85V414.792Z" fill="black"/>
<path opacity="0.2" d="M126.346 414.792H131.354V390.879H126.346V414.792Z" fill="black"/>
<path d="M120.717 390.879H247.775V366.965H120.717V390.879Z" fill="#92E3A9"/>
<path opacity="0.2" d="M120.717 369.683H247.775V366.965H120.717V369.683Z" fill="black"/>
<path opacity="0.2" d="M233.463 390.879H238.471V366.965H233.463V390.879Z" fill="black"/>
<path opacity="0.2" d="M221.96 390.879H226.968V366.965H221.96V390.879Z" fill="black"/>
<path opacity="0.2" d="M210.469 390.879H215.477V366.965H210.469V390.879Z" fill="black"/>
<path opacity="0.2" d="M198.978 390.879H203.986V366.965H198.978V390.879Z" fill="black"/>
<path opacity="0.2" d="M187.475 390.879H192.483V366.965H187.475V390.879Z" fill="black"/>
<path opacity="0.2" d="M175.984 390.879H180.992V366.965H175.984V390.879Z" fill="black"/>
<path opacity="0.2" d="M164.493 390.879H169.501V366.965H164.493V390.879Z" fill="black"/>
<path opacity="0.2" d="M152.99 390.879H157.997V366.965H152.99V390.879Z" fill="black"/>
<path opacity="0.2" d="M141.499 390.879H146.507V366.965H141.499V390.879Z" fill="black"/>
<path opacity="0.2" d="M130.008 390.879H135.016V366.965H130.008V390.879Z" fill="black"/>
<path d="M114.959 366.965H242.017V343.052H114.959V366.965Z" fill="#92E3A9"/>
<path opacity="0.2" d="M114.959 345.77H242.017V343.052H114.959V345.77Z" fill="black"/>
<path opacity="0.2" d="M227.705 366.965H232.713V343.052H227.705V366.965Z" fill="black"/>
<path opacity="0.2" d="M216.227 366.965H221.235V343.052H216.227V366.965Z" fill="black"/>
<path opacity="0.2" d="M204.724 366.965H209.732V343.052H204.724V366.965Z" fill="black"/>
<path opacity="0.2" d="M193.22 366.965H198.228V343.052H193.22V366.965Z" fill="black"/>
<path opacity="0.2" d="M181.742 366.965H186.75V343.052H181.742V366.965Z" fill="black"/>
<path opacity="0.2" d="M170.239 366.965H175.246V343.052H170.239V366.965Z" fill="black"/>
<path opacity="0.2" d="M158.735 366.965H163.743V343.052H158.735V366.965Z" fill="black"/>
<path opacity="0.2" d="M147.257 366.965H152.265V343.052H147.257V366.965Z" fill="black"/>
<path opacity="0.2" d="M135.754 366.965H140.761V343.052H135.754V366.965Z" fill="black"/>
<path opacity="0.2" d="M124.25 366.965H129.258V343.052H124.25V366.965Z" fill="black"/>
<path d="M518.454 248.448L467.781 257.131C466.806 257.295 465.902 257.745 465.184 258.424C464.466 259.104 463.966 259.982 463.748 260.946C463.53 261.91 463.604 262.917 463.961 263.84C464.317 264.762 464.94 265.557 465.749 266.124L475.092 272.736L417.807 353.715C417.434 354.241 416.961 354.689 416.416 355.033C415.87 355.376 415.262 355.609 414.626 355.717C413.99 355.825 413.339 355.807 412.71 355.663C412.081 355.52 411.487 355.253 410.961 354.879L326.761 295.355C325.694 294.605 324.374 294.307 323.089 294.528C321.803 294.749 320.658 295.47 319.903 296.533L150.169 536.441H211.168L331.807 365.904C332.18 365.378 332.653 364.93 333.199 364.586C333.744 364.243 334.353 364.01 334.988 363.902C335.624 363.794 336.275 363.812 336.904 363.956C337.533 364.1 338.127 364.366 338.653 364.74L422.853 424.264C423.381 424.637 423.977 424.903 424.607 425.046C425.237 425.189 425.89 425.206 426.527 425.097C427.163 424.987 427.773 424.753 428.319 424.408C428.866 424.064 429.339 423.614 429.711 423.086L515.75 301.45L525.105 308.063C525.912 308.618 526.863 308.925 527.843 308.944C528.822 308.963 529.785 308.694 530.612 308.17C531.439 307.646 532.094 306.89 532.496 305.997C532.897 305.103 533.027 304.112 532.869 303.145L524.173 252.472C523.94 251.185 523.209 250.041 522.139 249.288C521.068 248.535 519.745 248.233 518.454 248.448Z" fill="#92E3A9"/>
<path opacity="0.2" d="M518.454 248.448L467.781 257.131C466.806 257.295 465.902 257.745 465.184 258.424C464.466 259.104 463.966 259.982 463.748 260.946C463.53 261.91 463.604 262.917 463.961 263.84C464.317 264.762 464.94 265.557 465.749 266.124L475.092 272.736L417.807 353.715C417.434 354.241 416.961 354.689 416.416 355.033C415.87 355.376 415.262 355.609 414.626 355.717C413.99 355.825 413.339 355.807 412.71 355.663C412.081 355.52 411.487 355.253 410.961 354.879L326.761 295.355C325.694 294.605 324.374 294.307 323.089 294.528C321.803 294.749 320.658 295.47 319.903 296.533L150.169 536.441H211.168L331.807 365.904C332.18 365.378 332.653 364.93 333.199 364.586C333.744 364.243 334.353 364.01 334.988 363.902C335.624 363.794 336.275 363.812 336.904 363.956C337.533 364.1 338.127 364.366 338.653 364.74L422.853 424.264C423.381 424.637 423.977 424.903 424.607 425.046C425.237 425.189 425.89 425.206 426.527 425.097C427.163 424.987 427.773 424.753 428.319 424.408C428.866 424.064 429.339 423.614 429.711 423.086L515.75 301.45L525.105 308.063C525.912 308.618 526.863 308.925 527.843 308.944C528.822 308.963 529.785 308.694 530.612 308.17C531.439 307.646 532.094 306.89 532.496 305.997C532.897 305.103 533.027 304.112 532.869 303.145L524.173 252.472C523.94 251.185 523.209 250.041 522.139 249.288C521.068 248.535 519.745 248.233 518.454 248.448Z" fill="black"/>
<path opacity="0.2" d="M207.351 529.388H164.416C164.356 529.386 164.299 529.368 164.249 529.336C164.199 529.304 164.158 529.26 164.131 529.207C164.1 529.157 164.084 529.098 164.084 529.039C164.084 528.98 164.1 528.921 164.131 528.871L321.378 306.562C321.772 305.996 322.274 305.513 322.855 305.141C323.437 304.77 324.085 304.517 324.765 304.397C325.444 304.276 326.14 304.291 326.814 304.441C327.487 304.59 328.124 304.871 328.689 305.268L412.877 364.792C413.371 365.15 413.933 365.407 414.528 365.546C415.123 365.685 415.74 365.704 416.343 365.601C416.945 365.499 417.521 365.277 418.037 364.949C418.553 364.621 418.998 364.194 419.347 363.692L484.965 270.938L474.613 263.575C474.558 263.541 474.515 263.489 474.492 263.428C474.468 263.368 474.466 263.301 474.484 263.238C474.498 263.177 474.53 263.12 474.576 263.077C474.622 263.033 474.68 263.004 474.743 262.993L517.445 255.681C517.486 255.674 517.527 255.675 517.568 255.684C517.608 255.693 517.647 255.71 517.68 255.734C517.714 255.758 517.743 255.789 517.765 255.824C517.786 255.86 517.801 255.899 517.807 255.94L525.118 298.642C525.128 298.706 525.12 298.771 525.094 298.831C525.069 298.89 525.028 298.941 524.976 298.979C524.922 299.013 524.859 299.032 524.795 299.032C524.73 299.032 524.668 299.013 524.613 298.979L514.261 291.616L428.405 412.993C428.01 413.557 427.509 414.038 426.929 414.409C426.349 414.779 425.701 415.032 425.023 415.152C424.346 415.272 423.651 415.257 422.979 415.109C422.307 414.961 421.671 414.681 421.106 414.287L336.906 354.763C336.413 354.414 335.857 354.166 335.268 354.033C334.679 353.9 334.07 353.884 333.475 353.986C332.88 354.088 332.311 354.306 331.801 354.628C331.291 354.95 330.849 355.37 330.501 355.863L207.622 529.246C207.592 529.29 207.551 529.325 207.504 529.35C207.456 529.375 207.404 529.388 207.351 529.388ZM165.037 528.741H207.182L329.776 355.436C330.574 354.296 331.793 353.519 333.164 353.276C334.534 353.034 335.946 353.345 337.087 354.142L421.288 413.666C421.78 414.015 422.337 414.263 422.925 414.396C423.514 414.529 424.123 414.545 424.718 414.443C425.313 414.341 425.882 414.123 426.392 413.801C426.903 413.479 427.345 413.059 427.693 412.566L513.731 290.93C513.753 290.894 513.783 290.863 513.819 290.841C513.855 290.818 513.896 290.805 513.938 290.801C513.976 290.782 514.018 290.773 514.061 290.773C514.103 290.773 514.145 290.782 514.184 290.801L524.212 297.892L517.082 256.471L475.532 263.588L485.561 270.679C485.627 270.73 485.673 270.804 485.69 270.886C485.722 270.965 485.722 271.053 485.69 271.132L419.89 364.158C419.495 364.721 418.992 365.2 418.41 365.566C417.828 365.933 417.178 366.18 416.5 366.293C415.14 366.518 413.747 366.203 412.618 365.413L328.43 305.889C327.935 305.53 327.374 305.274 326.779 305.135C326.183 304.996 325.567 304.977 324.964 305.079C324.361 305.182 323.785 305.403 323.27 305.731C322.754 306.059 322.309 306.486 321.96 306.989L165.037 528.741Z" fill="white"/>
<path d="M450.377 455.216H445.058V534.344H450.377V455.216Z" fill="#263238"/>
<path d="M496.909 412.1H491.591V534.344H496.909V412.1Z" fill="#263238"/>
<path d="M544.295 441.422H538.977V534.344H544.295V441.422Z" fill="#263238"/>
<path d="M445.071 455.216H407.778V534.344H445.071V455.216Z" fill="#92E3A9"/>
<path opacity="0.2" d="M407.778 455.216V502.137L426.412 455.216H407.778Z" fill="white"/>
<path d="M491.591 412.1H454.297V534.344H491.591V412.1Z" fill="#92E3A9"/>
<path opacity="0.2" d="M454.297 412.1V459.021L472.944 412.1H454.297Z" fill="white"/>
<path d="M538.99 441.422H501.697V534.344H538.99V441.422Z" fill="#92E3A9"/>
<path opacity="0.2" d="M501.697 441.422V483.18L520.343 441.422H501.697Z" fill="white"/>
<path d="M321.016 527.874L311.013 525.998L312.708 502.331L322.711 504.22L321.016 527.874Z" fill="#7F3E3B"/>
<path d="M388.329 527.603H378.146L375.622 504.039H385.793L388.329 527.603Z" fill="#7F3E3B"/>
<path d="M377.317 526.425H389.714C389.916 526.426 390.112 526.496 390.27 526.623C390.427 526.75 390.537 526.926 390.581 527.124L392.6 536.182C392.646 536.402 392.643 536.63 392.589 536.849C392.536 537.067 392.434 537.271 392.291 537.445C392.148 537.619 391.968 537.759 391.764 537.854C391.56 537.949 391.337 537.996 391.112 537.993C387.113 537.929 384.202 537.683 379.181 537.683C376.088 537.683 366.758 538.006 362.488 538.006C358.218 538.006 357.662 533.788 359.409 533.4C367.25 531.692 373.151 529.324 375.661 527.072C376.113 526.657 376.704 526.427 377.317 526.425Z" fill="#263238"/>
<path d="M311.22 523.798L322.18 525.687C322.378 525.722 322.559 525.823 322.693 525.973C322.827 526.123 322.906 526.315 322.918 526.516L323.358 535.768C323.369 535.991 323.33 536.214 323.243 536.421C323.156 536.627 323.023 536.811 322.855 536.959C322.688 537.107 322.488 537.215 322.273 537.275C322.057 537.336 321.831 537.347 321.611 537.308C317.729 536.557 311.996 535.341 307.04 534.487C301.23 533.49 298.396 532.766 291.59 531.588C287.475 530.876 288.368 526.412 290.167 526.296C298.306 525.933 301.179 527.176 308.671 524.161C309.47 523.805 310.353 523.679 311.22 523.798Z" fill="#263238"/>
<path d="M346.067 216.214C345.718 217.25 345.446 218 345.123 218.802C344.799 219.605 344.476 220.459 344.139 221.274C343.466 222.917 342.755 224.522 342.004 226.126C340.505 229.346 338.825 232.479 336.971 235.508C333.177 241.988 328.235 247.723 322.387 252.434C320.759 253.675 319.027 254.775 317.211 255.72C316.745 255.979 316.267 256.199 315.775 256.419C315.283 256.639 314.843 256.846 314.261 257.066C313.114 257.488 311.932 257.809 310.728 258.024C308.774 258.353 306.796 258.522 304.815 258.528C302.951 258.528 301.166 258.528 299.406 258.36C292.541 257.813 285.749 256.581 279.129 254.685L280.151 247.115C286.621 246.869 293.182 246.662 299.341 246.119C300.881 245.976 302.395 245.795 303.831 245.575C305.146 245.397 306.445 245.111 307.713 244.721C308.127 244.603 308.527 244.438 308.904 244.23C309.331 243.971 309.913 243.725 310.392 243.388C311.447 242.723 312.446 241.975 313.381 241.15C315.445 239.319 317.306 237.271 318.932 235.042C320.704 232.678 322.321 230.201 323.772 227.628C325.286 225.04 326.644 222.283 327.977 219.514C328.624 218.13 329.271 216.719 329.841 215.309L330.708 213.199L331.497 211.207L346.067 216.214Z" fill="#7F3E3B"/>
<path d="M341.163 204.284C359.732 204.284 339.326 244.398 339.326 244.398L315.633 234.809C315.633 234.809 322.103 220.86 326.36 212.876C327.739 210.171 329.869 207.921 332.495 206.397C335.121 204.873 338.13 204.139 341.163 204.284Z" fill="#92E3A9"/>
<g opacity="0.3">
<path d="M341.163 204.284C359.732 204.284 339.326 244.398 339.326 244.398L315.633 234.809C315.633 234.809 322.103 220.86 326.36 212.876C327.739 210.171 329.869 207.921 332.495 206.397C335.121 204.873 338.13 204.139 341.163 204.284Z" fill="white"/>
</g>
<path opacity="0.2" d="M336.621 217.25C329.828 222.025 325.105 230.888 323.759 238.083L337.294 243.57C339.753 239.895 342.147 235.56 344.786 231.755C345.511 229.776 346.223 227.692 346.844 225.583L336.621 217.25Z" fill="black"/>
<path d="M285.974 248.086L277.835 243.492L271.598 255.138C275.2 255.747 278.887 255.655 282.454 254.866L285.974 248.086Z" fill="#7F3E3B"/>
<path d="M270.045 243.492L265.516 253.766L271.546 255.177L277.783 243.492H270.045Z" fill="#7F3E3B"/>
<path opacity="0.2" d="M312.708 502.344L311.841 514.533L321.844 516.409L322.711 504.22L312.708 502.344Z" fill="black"/>
<path opacity="0.2" d="M385.793 504.052H375.609L376.929 516.202H387.1L385.793 504.052Z" fill="black"/>
<path d="M391.797 208.722C388.813 219.705 386.651 230.894 385.327 242.198C384.357 250.078 383.787 257.597 383.425 264.429C382.571 280.423 382.933 292.612 382.455 296.779C374.497 296.235 344.515 294.191 328.107 293C320.718 235.12 334.835 205.306 334.835 205.306C339.112 204.502 343.433 203.962 347.775 203.689C348.694 203.689 349.639 203.598 350.583 203.585C358.303 203.675 366.011 204.211 373.668 205.19C375.118 205.358 376.593 205.578 378.016 205.811C385.405 206.949 391.797 208.722 391.797 208.722Z" fill="#92E3A9"/>
<g opacity="0.3">
<path d="M391.797 208.722C388.813 219.705 386.651 230.894 385.327 242.198C384.357 250.078 383.787 257.597 383.425 264.429C382.571 280.423 382.933 292.612 382.455 296.779C374.497 296.235 344.515 294.191 328.107 293C320.718 235.12 334.835 205.306 334.835 205.306C339.112 204.502 343.433 203.962 347.775 203.689C348.694 203.689 349.639 203.598 350.583 203.585C358.303 203.675 366.011 204.211 373.668 205.19C375.118 205.358 376.593 205.578 378.016 205.811C385.405 206.949 391.797 208.722 391.797 208.722Z" fill="white"/>
</g>
<path opacity="0.2" d="M378.094 223.37C377.99 231.699 380.325 239.876 384.81 246.895C384.965 245.342 385.146 243.777 385.34 242.198C386.065 236.271 386.997 230.138 388.226 223.94L378.094 223.37Z" fill="black"/>
<path d="M373.306 178.999C371.339 186.336 368.932 199.832 373.785 205.151C371.331 207.377 368.427 209.05 365.27 210.057C362.114 211.064 358.778 211.381 355.488 210.987C349.108 210.404 349.108 205.914 350.7 203.546C359.124 202.149 359.331 195.989 358.296 190.114L373.306 178.999Z" fill="#7F3E3B"/>
<path d="M350.816 213.406C350.966 214.549 351.235 215.672 351.619 216.758C351.729 217.104 351.946 217.406 352.239 217.62C352.532 217.834 352.886 217.949 353.249 217.948C354.312 217.933 355.374 218.024 356.419 218.22C356.64 218.272 356.868 218.278 357.09 218.238C357.313 218.198 357.525 218.112 357.713 217.987C359.007 217.172 360.664 215.969 360.237 214.468C359.732 212.708 356.704 211.116 356.704 211.116C356.704 211.116 351.502 212.397 350.816 213.406Z" fill="#263238"/>
<path d="M353.547 216.758C351.463 221.313 346.65 250.48 346.054 254.892C345.459 259.305 347.491 266.422 350.312 272.076C353.554 267.63 355.401 262.319 355.617 256.82C355.992 250.79 356.355 217.483 356.355 217.483L353.547 216.758Z" fill="#263238"/>
<path d="M356.665 211.116C358.591 212.723 360.183 214.693 361.349 216.913C364.623 216.654 379.077 210.314 377.02 205.423C375.221 204.918 373.642 203.883 373.138 204.413C372.452 205.461 366.318 209.162 356.665 211.116Z" fill="white"/>
<path d="M356.665 211.116C356.665 211.116 351.114 212.992 349.82 216.15C346.468 214.662 344.644 207.946 347.607 203.533C349.458 203.378 351.23 202.459 351.567 203.067C352.084 204.219 350.674 207.312 356.665 211.116Z" fill="white"/>
<path opacity="0.2" d="M367.185 183.541L358.296 190.102C358.564 191.47 358.707 192.861 358.723 194.255C361.919 194.022 366.487 190.852 367.082 187.565C367.364 186.242 367.399 184.877 367.185 183.541Z" fill="black"/>
<path d="M351.748 155.435C347.866 156.962 346.43 171.986 354.336 170.51C362.242 169.035 359.564 152.368 351.748 155.435Z" fill="#263238"/>
<path d="M377.382 170.459C374.212 180.047 372.853 185.818 366.616 189.532C357.222 195.109 346.365 187.475 346.598 177.136C346.805 167.832 351.942 153.701 362.514 152.343C364.842 152.028 367.211 152.313 369.397 153.173C371.583 154.032 373.513 155.436 375.003 157.252C376.493 159.067 377.494 161.234 377.911 163.546C378.327 165.857 378.145 168.237 377.382 170.459Z" fill="#7F3E3B"/>
<path d="M373.785 177.058C369.76 177.136 366.461 164.946 374.574 161.53C368.182 160.792 348.552 161.866 345.032 153.093C341.513 144.32 355.164 142.961 359.81 146.274C358.334 141.447 364.339 134.33 375.131 140.8C385.923 147.27 385.793 155.254 384.784 157.622C389.598 158.916 390.542 169.63 385.224 171.067C388.342 175.389 385.651 184.473 377.24 182.532C376.955 187.824 371.055 185.508 371.417 181.445C371.779 177.382 373.785 177.058 373.785 177.058Z" fill="#263238"/>
<path d="M355.85 179.4C356.988 179.733 358.188 179.789 359.352 179.564C360.516 179.339 361.609 178.839 362.54 178.106C362.588 178.056 362.615 177.988 362.615 177.919C362.615 177.849 362.588 177.781 362.54 177.731C362.492 177.683 362.427 177.657 362.359 177.657C362.291 177.657 362.226 177.683 362.178 177.731C361.317 178.42 360.306 178.897 359.227 179.122C358.148 179.347 357.031 179.314 355.966 179.025C355.934 179.015 355.9 179.012 355.867 179.016C355.833 179.02 355.801 179.031 355.772 179.048C355.743 179.065 355.717 179.088 355.697 179.115C355.678 179.142 355.663 179.173 355.656 179.206C355.665 179.254 355.689 179.298 355.723 179.333C355.758 179.367 355.802 179.391 355.85 179.4Z" fill="#263238"/>
<path d="M379.388 180.629C377.529 182.365 375.059 183.295 372.517 183.217C369.152 183.075 368.505 179.814 370.304 177.187C371.934 174.819 375.635 172.011 378.586 173.448C379.227 173.77 379.778 174.247 380.189 174.836C380.599 175.425 380.856 176.107 380.936 176.821C381.015 177.534 380.916 178.257 380.645 178.922C380.375 179.587 379.943 180.174 379.388 180.629Z" fill="#7F3E3B"/>
<path d="M308.464 510.587L325.286 514.559C325.286 514.559 331.238 449.018 336.349 413.006C337.708 403.456 339.804 390.025 343.001 375.713C347.025 357.687 352.059 338.187 356.225 322.918C360.586 306.833 363.912 295.459 363.912 295.459L328.223 292.962C328.223 292.962 308.904 377.201 306.859 408.128C304.672 440.4 308.464 510.587 308.464 510.587Z" fill="#263238"/>
<path opacity="0.2" d="M342.91 375.713C346.934 357.687 351.968 338.187 356.135 322.918L352.421 314.934C343.609 325.454 341.228 358.024 342.91 375.713Z" fill="black"/>
<path d="M347.426 294.307C347.426 294.307 351.308 381.419 355.578 410.923C360.276 443.273 372.219 513.847 372.219 513.847H390.866C390.866 513.847 385.69 446.728 382.183 415.089C378.184 379.051 382.455 296.753 382.455 296.753L347.426 294.307Z" fill="#263238"/>
<path d="M369.993 514.249H391.94L392.91 507.688L368.687 507.261L369.993 514.249Z" fill="#92E3A9"/>
<path d="M307.39 511.712L326.502 515.31L328.663 508.645L306.872 504.518L307.39 511.712Z" fill="#92E3A9"/>
<path d="M362.644 169.695C362.424 170.484 361.841 170.989 361.35 170.886C360.858 170.782 360.573 169.993 360.78 169.203C360.987 168.414 361.582 167.909 362.074 168.013C362.566 168.116 362.851 168.906 362.644 169.695Z" fill="#263238"/>
<path d="M353.663 167.34C353.456 168.129 352.861 168.634 352.369 168.518C351.877 168.401 351.606 167.638 351.813 166.835C352.02 166.033 352.615 165.541 353.107 165.645C353.598 165.748 353.87 166.538 353.663 167.34Z" fill="#263238"/>
<path d="M355.656 168.078C354.068 170.254 352.192 172.204 350.079 173.875C351.127 175.544 353.831 175.402 353.831 175.402L355.656 168.078Z" fill="#630F0F"/>
<path d="M365.426 167.12C365.336 167.115 365.249 167.084 365.176 167.031C365.102 166.978 365.045 166.906 365.012 166.822C364.793 166.257 364.445 165.751 363.996 165.344C363.546 164.937 363.008 164.642 362.424 164.48C362.361 164.468 362.302 164.444 362.25 164.41C362.197 164.375 362.152 164.33 362.116 164.278C362.081 164.226 362.056 164.167 362.043 164.105C362.03 164.043 362.03 163.979 362.042 163.917C362.054 163.855 362.078 163.796 362.112 163.744C362.147 163.691 362.192 163.645 362.244 163.61C362.296 163.575 362.355 163.55 362.417 163.537C362.479 163.524 362.543 163.524 362.605 163.536C363.346 163.725 364.032 164.089 364.604 164.598C365.176 165.107 365.617 165.745 365.891 166.46C365.917 166.519 365.93 166.582 365.931 166.646C365.932 166.709 365.92 166.773 365.895 166.832C365.871 166.891 365.836 166.944 365.791 166.989C365.745 167.035 365.692 167.07 365.633 167.094C365.567 167.119 365.496 167.128 365.426 167.12Z" fill="#263238"/>
<path d="M349.872 162.837C349.772 162.825 349.677 162.785 349.6 162.721C349.554 162.676 349.518 162.623 349.493 162.564C349.468 162.505 349.455 162.442 349.455 162.378C349.455 162.314 349.468 162.25 349.493 162.192C349.518 162.133 349.554 162.079 349.6 162.035C350.084 161.442 350.704 160.974 351.406 160.67C352.109 160.366 352.874 160.235 353.637 160.288C353.762 160.31 353.874 160.378 353.95 160.479C354.027 160.579 354.063 160.705 354.051 160.831C354.032 160.957 353.965 161.071 353.863 161.148C353.762 161.225 353.634 161.26 353.508 161.245C352.903 161.218 352.3 161.332 351.747 161.58C351.195 161.827 350.708 162.2 350.325 162.669C350.27 162.733 350.2 162.783 350.12 162.812C350.041 162.842 349.955 162.85 349.872 162.837Z" fill="#263238"/>
<path d="M373.966 528.211C373.271 528.264 372.578 528.082 371.999 527.693C371.816 527.536 371.675 527.335 371.589 527.109C371.503 526.883 371.475 526.639 371.507 526.399C371.504 526.259 371.541 526.121 371.615 526.001C371.688 525.882 371.795 525.786 371.921 525.726C373.047 525.144 376.321 527.163 376.696 527.396C376.736 527.419 376.767 527.454 376.785 527.496C376.804 527.537 376.809 527.584 376.8 527.628C376.796 527.678 376.776 527.724 376.743 527.762C376.711 527.799 376.667 527.825 376.619 527.836C375.751 528.059 374.861 528.185 373.966 528.211ZM372.452 526.102C372.344 526.093 372.236 526.115 372.141 526.166C372.077 526.166 371.999 526.257 371.986 526.451C371.964 526.611 371.981 526.774 372.038 526.925C372.094 527.077 372.188 527.212 372.31 527.318C373.446 527.836 374.737 527.901 375.92 527.499C374.861 526.812 373.679 526.337 372.439 526.102H372.452Z" fill="#92E3A9"/>
<path d="M376.554 527.848H376.438C375.389 527.279 373.345 525.04 373.565 523.966C373.6 523.789 373.696 523.63 373.835 523.514C373.973 523.399 374.148 523.335 374.328 523.332C374.513 523.306 374.701 523.321 374.88 523.374C375.059 523.428 375.224 523.52 375.364 523.643C376.541 524.601 376.787 527.525 376.8 527.667C376.801 527.711 376.79 527.754 376.77 527.792C376.749 527.831 376.72 527.863 376.683 527.887C376.637 527.888 376.592 527.875 376.554 527.848ZM374.497 523.721H374.393C374.082 523.721 374.057 523.902 374.044 523.966C373.914 524.626 375.208 526.322 376.256 527.111C376.188 525.952 375.769 524.842 375.053 523.928C374.899 523.793 374.701 523.72 374.497 523.721Z" fill="#92E3A9"/>
<path d="M310.004 525.015C308.334 525.015 305.397 524.95 304.465 523.798C304.318 523.621 304.218 523.409 304.175 523.183C304.132 522.957 304.147 522.723 304.219 522.504C304.247 522.377 304.307 522.26 304.393 522.162C304.479 522.065 304.589 521.991 304.711 521.948C306.005 521.495 309.732 524.212 310.146 524.536C310.186 524.564 310.215 524.605 310.229 524.652C310.243 524.699 310.241 524.749 310.224 524.795C310.218 524.851 310.193 524.904 310.153 524.944C310.113 524.984 310.06 525.009 310.004 525.015ZM304.905 522.427C304.854 522.443 304.809 522.474 304.775 522.515C304.74 522.556 304.718 522.606 304.711 522.66C304.669 522.796 304.661 522.94 304.688 523.08C304.715 523.22 304.777 523.351 304.866 523.462C305.384 524.122 307.014 524.497 309.292 524.51C307.752 523.501 305.682 522.271 304.905 522.44V522.427Z" fill="#92E3A9"/>
<path d="M310.004 525.015C309.945 525.038 309.881 525.038 309.822 525.015C308.71 524.264 306.691 521.676 307.066 520.576C307.157 520.317 307.403 520.02 308.063 520.059C308.31 520.069 308.553 520.131 308.776 520.24C308.999 520.349 309.196 520.504 309.357 520.693C310.457 521.987 310.262 524.717 310.249 524.833C310.247 524.874 310.234 524.914 310.211 524.948C310.188 524.982 310.157 525.009 310.12 525.028L310.004 525.015ZM307.752 520.524C307.571 520.524 307.532 520.654 307.519 520.693C307.299 521.353 308.632 523.345 309.732 524.29C309.822 523.13 309.546 521.972 308.943 520.977C308.831 520.842 308.693 520.732 308.537 520.652C308.382 520.571 308.211 520.524 308.037 520.512C307.942 520.494 307.845 520.499 307.752 520.524Z" fill="#92E3A9"/>
<path d="M345.64 254.167L341.513 251.217L273.836 345.951L277.964 348.901C290.542 357.423 305.953 360.691 320.907 358.008C335.861 355.325 349.174 346.904 358.006 334.541C366.837 322.179 370.487 306.855 368.177 291.838C365.867 276.822 357.779 263.304 345.64 254.167Z" fill="#92E3A9"/>
<path opacity="0.1" d="M345.64 254.167L341.513 251.217L273.836 345.951L277.964 348.901C290.542 357.423 305.953 360.691 320.907 358.008C335.861 355.325 349.174 346.904 358.006 334.541C366.837 322.179 370.487 306.855 368.177 291.838C365.867 276.822 357.779 263.304 345.64 254.167Z" fill="black"/>
<path d="M245.407 305.992C244.444 297.987 245.037 289.872 247.154 282.092L248.448 282.428C246.368 290.051 245.788 298.006 246.74 305.85L245.407 305.992Z" fill="#92E3A9"/>
<path d="M249.328 321.611C248.174 318.666 247.244 315.638 246.546 312.553L247.84 312.268C248.53 315.282 249.442 318.24 250.57 321.119L249.328 321.611Z" fill="#92E3A9"/>
<path d="M319.439 355.574C350.924 349.088 371.189 318.308 364.703 286.823C358.217 255.339 327.437 235.074 295.953 241.56C264.468 248.045 244.203 278.826 250.689 310.31C257.175 341.794 287.955 362.06 319.439 355.574Z" fill="#92E3A9"/>
<path d="M293.932 313.303L303.068 300.531C299.893 296.546 298.198 292.733 297.982 289.093C297.818 285.372 298.958 281.711 301.204 278.741C303.339 275.575 306.627 273.369 310.366 272.594C314.23 271.859 318.23 272.602 321.572 274.677L323.772 271.598L328.197 274.755L325.984 277.835C328.691 280.108 330.574 283.209 331.342 286.66C331.92 290.049 331.375 293.534 329.789 296.585L321.352 292.082C321.967 290.92 322.274 289.62 322.242 288.305C322.21 286.991 321.841 285.707 321.171 284.576L312.656 296.507C316.59 301.321 318.691 305.41 318.958 308.774C319.153 312.373 318.041 315.921 315.827 318.764C313.488 322.248 309.92 324.72 305.837 325.687C301.533 326.573 297.054 325.865 293.233 323.694L291.034 326.774L286.608 323.616L288.704 320.679C285.687 318.088 283.654 314.538 282.946 310.625C282.405 306.363 283.259 302.042 285.379 298.306L293.958 303.145C293.149 304.869 292.746 306.754 292.78 308.658C292.796 310.275 293.191 311.866 293.932 313.303ZM316.81 281.277C315.397 280.817 313.875 280.817 312.462 281.277C311.098 281.712 309.912 282.579 309.085 283.748C308.32 284.83 307.913 286.124 307.92 287.449C307.935 288.995 308.384 290.506 309.214 291.81L316.81 281.277ZM298.047 316.901C299.657 317.679 301.489 317.867 303.223 317.431C304.963 317.004 306.487 315.954 307.506 314.481C308.441 313.217 308.9 311.663 308.8 310.094C308.553 308.2 307.741 306.423 306.471 304.996L298.047 316.901Z" fill="white"/>
<path opacity="0.1" d="M354.828 293.738C352.119 281.977 345.026 271.691 334.996 264.978C324.965 258.265 312.753 255.63 300.847 257.61C288.941 259.591 278.238 266.037 270.921 275.635C263.603 285.233 260.222 297.261 261.466 309.266C260.013 302.959 259.867 296.422 261.036 290.056C262.206 283.691 264.666 277.632 268.266 272.254C271.866 266.875 276.528 262.29 281.967 258.782C287.406 255.274 293.505 252.916 299.889 251.854C306.274 250.792 312.808 251.049 319.089 252.608C325.371 254.167 331.266 256.995 336.413 260.919C341.56 264.843 345.849 269.779 349.016 275.423C352.183 281.068 354.161 287.3 354.828 293.738Z" fill="black"/>
<path d="M393.104 214.286C394.398 215.93 395.472 217.405 396.559 219.009C397.646 220.614 398.707 222.154 399.743 223.758C401.8 226.968 403.754 230.228 405.566 233.632C407.377 237.035 409.059 240.516 410.586 244.113L411.699 246.843L412.708 249.651C413.045 250.57 413.33 251.554 413.627 252.511L414.054 253.96L414.171 254.323L414.365 255.112C414.488 255.649 414.574 256.194 414.624 256.743C414.746 258.566 414.504 260.396 413.912 262.126C413.465 263.427 412.879 264.676 412.165 265.852C410.984 267.778 409.614 269.581 408.076 271.235C405.346 274.137 402.382 276.807 399.212 279.219C393.186 283.821 386.769 287.886 380.035 291.37L375.842 284.978C381.264 280.358 386.686 275.493 391.59 270.562C393.974 268.202 396.187 265.677 398.216 263.006C399.077 261.889 399.823 260.688 400.441 259.421C400.632 259.006 400.78 258.573 400.881 258.127C400.881 257.842 400.881 257.791 400.881 258.127C400.862 258.221 400.862 258.318 400.881 258.412C400.879 258.451 400.879 258.489 400.881 258.528L400.765 258.244L400.312 257.105C400.001 256.328 399.73 255.565 399.367 254.802L398.332 252.511L397.232 250.221C395.692 247.18 394.049 244.152 392.263 241.163C390.477 238.174 388.627 235.197 386.699 232.273C385.754 230.798 384.771 229.336 383.787 227.899L380.837 223.694L393.104 214.286Z" fill="#7F3E3B"/>
<path d="M391.797 208.722C401.334 210.65 409.706 233.968 409.706 233.968L389.805 250.182C389.805 250.182 383.335 238.329 378.055 226.89C372.374 214.429 380.242 206.393 391.797 208.722Z" fill="#92E3A9"/>
<g opacity="0.3">
<path d="M391.797 208.722C401.334 210.65 409.706 233.968 409.706 233.968L389.805 250.182C389.805 250.182 383.335 238.329 378.055 226.89C372.374 214.429 380.242 206.393 391.797 208.722Z" fill="white"/>
</g>
<path d="M378.197 284.085L367.923 285.211L374.587 296.365C374.587 296.365 383.128 293.466 382.092 288.782L378.197 284.085Z" fill="#7F3E3B"/>
<path d="M361.802 291.098L367.742 300.066L374.587 296.365L367.923 285.211L361.802 291.098Z" fill="#7F3E3B"/>
</svg>
